#tb 0: 1001/24000
#media_type 0: video
#codec_id 0: dnxhd
#dimensions 0: 640x480
#sar 0: 1/1
0,          0,          0,        1,    28672, 0x7a4b0044
0,          1,          1,        1,    28672, 0x75dc29a6
0,          2,          2,        1,    28672, 0xecabd44b
0,          3,          3,        1,    28672, 0xc917a96e
0,          4,          4,        1,    28672, 0x7805cfd5
0,          5,          5,        1,    28672, 0x55d26dab
